<?xml version="1.0" encoding="UTF-8"?>
<svg xmlns="http://www.w3.org/2000/svg" xmlns:xlink="http://www.w3.org/1999/xlink" xmlns:svg="http://www.w3.org/2000/svg" xmlns:rdf="http://www.w3.org/1999/02/22-rdf-syntax-ns#" xmlns:inkscape="http://www.inkscape.org/namespaces/inkscape" xmlns:dc="http://purl.org/dc/elements/1.1/" xmlns:cc="http://creativecommons.org/ns#" version="1.1" viewBox="0 0 1727.6 538.1">
  <defs>
    <style>
      .cls-1 {
        stroke: #000;
        stroke-linecap: round;
        stroke-linejoin: round;
      }

      .cls-1, .cls-2 {
        fill: none;
      }

      .cls-3, .cls-4, .cls-5 {
        isolation: isolate;
      }

      .cls-2 {
        stroke: red;
        stroke-miterlimit: 10;
        stroke-width: 0px;
      }

      .cls-6 {
        fill: #3d46b2;
      }

      .cls-4 {
        font-size: 28.3px;
      }

      .cls-4, .cls-5 {
        font-family: Helvetica, Helvetica;
      }

      .cls-5 {
        fill: #231f20;
        font-size: 11.3px;
      }

      .cls-7 {
        display: none;
      }
    </style>
  </defs>
  <!-- Generator: Adobe Illustrator 28.6.0, SVG Export Plug-In . SVG Version: 1.2.0 Build 709)  -->
  <g>
    <g id="Layer_1">
      <g id="YmpgYh.tif-3">
        <image class="cls-3" width="377" height="312" transform="translate(1149.5 24.6) scale(.9)" xlink:href="240811_box-1.png"/>
      </g>
      <g id="YmpgYh.tif-3-2" data-name="YmpgYh.tif-3">
        <image class="cls-3" width="654" height="317" transform="translate(12.9 186) scale(.9)" xlink:href="240811_box-2.png"/>
      </g>
      <g id="YmpgYh.tif-4">
        <image class="cls-3" width="737" height="201" transform="translate(13.8 27.8) scale(.8)" xlink:href="240811_box-3.png"/>
      </g>
      <g id="p-1">
        <path class="cls-2" d="M593.6,454h31.2c.2,0,.3,0,.3-.3v-11.1c0-.3-.3,0,0,0h22.1c.3,0,0-.3,0,0v11.1c0,.2,0,.3.3.3h22.7c.2,0,.3,0,.3-.3v-11.1c0-.3-.3,0,0,0h22.1c.3,0,0-.3,0,0v11.1c0,.2,0,.3.3.3h22.7c.2,0,.3,0,.3-.3v-11.1c0-.3-.3,0,0,0h22.1c.3,0,0-.3,0,0v11.1c0,.2,0,.3.3.3h22.7c.2,0,.3,0,.3-.3v-11.1c0-.3-.3,0,0,0h22.1c.3,0,0-.3,0,0v11.1c0,.2,0,.3.3.3h22.7c.2,0,.3,0,.3-.3v-11.1c0-.3-.3,0,0,0h22.1c.3,0,0-.3,0,0v11.1c0,.2,0,.3.3.3h22.7c.2,0,.3,0,.3-.3v-11.1c0-.3-.3,0,0,0h22.1c.3,0,0-.3,0,0v11.1c0,.2,0,.3.3.3h22.7c.2,0,.3,0,.3-.3v-11.1c0-.3-.3,0,0,0h22.1c.3,0,0-.3,0,0v11.1c0,.2,0,.3.3.3h22.7c.2,0,.3,0,.3-.3v-11.1c0-.3-.3,0,0,0h22.1c.3,0,0-.3,0,0v11.1c0,.2,0,.3.3.3h22.7c.2,0,.3,0,.3-.3v-11.1c0-.3-.3,0,0,0h22.1c.3,0,0-.3,0,0v11.1c0,.2,0,.3.3.3h22.7c.2,0,.3,0,.3-.3v-11.1c0-.3-.3,0,0,0h22.1c.3,0,0-.3,0,0v11.1c0,.2,0,.3.3.3h22.7c.2,0,.3,0,.3-.3v-11.1c0-.3-.3,0,0,0h22.1c.3,0,0-.3,0,0v11.1c0,.2,0,.3.3.3h42.5c.2,0,.3,0,.3-.3v-53.9c0-.2,0-.3-.3-.3h-11.1c-.3,0,0,.3,0,0v-22.1c0-.3-.3,0,0,0h11.1c.2,0,.3,0,.3-.3v-22.7c0-.2,0-.3-.3-.3h-11.1c-.3,0,0,.3,0,0v-22.1c0-.3-.3,0,0,0h11.1c.2,0,.3,0,.3-.3v-22.7c0-.2,0-.3-.3-.3h-11.1c-.3,0,0,.3,0,0v-22.1c0-.3-.3,0,0,0h11.1c.2,0,.3,0,.3-.3v-22.7c0-.2,0-.3-.3-.3h-11.1c-.3,0,0,.3,0,0v-22.1c0-.3-.3,0,0,0h11.1c.2,0,.3,0,.3-.3v-53.9c0-.2,0-.3-.3-.3h-42.5c-.2,0-.3.1-.3.3v11.1c0,.3.3,0,0,0h-22.1c-.3,0,0,.3,0,0v-11.1c0-.2,0-.3-.3-.3h-22.7c-.2,0-.3.1-.3.3v11.1c0,.3.3,0,0,0h-22.1c-.3,0,0,.3,0,0v-11.1c0-.2,0-.3-.3-.3h-22.7c-.2,0-.3.1-.3.3v11.1c0,.3.3,0,0,0h-22.1c-.3,0,0,.3,0,0v-11.1c0-.2,0-.3-.3-.3h-22.7c-.2,0-.3.1-.3.3v11.1c0,.3.3,0,0,0h-22.1c-.3,0,0,.3,0,0v-11.1c0-.2,0-.3-.3-.3h-22.7c-.2,0-.3.1-.3.3v11.1c0,.3.3,0,0,0h-22.1c-.3,0,0,.3,0,0v-11.1c0-.2,0-.3-.3-.3h-22.7c-.2,0-.3.1-.3.3v11.1c0,.3.3,0,0,0h-22.1c-.3,0,0,.3,0,0v-11.1c0-.2,0-.3-.3-.3h-22.7c-.2,0-.3.1-.3.3v11.1c0,.3.3,0,0,0h-22.1c-.3,0,0,.3,0,0v-11.1c0-.2,0-.3-.3-.3h-22.7c-.2,0-.3.1-.3.3v11.1c0,.3.3,0,0,0h-22.1c-.3,0,0,.3,0,0v-11.1c0-.2,0-.3-.3-.3h-22.7c-.2,0-.3.1-.3.3v11.1c0,.3.3,0,0,0h-22.1c-.3,0,0,.3,0,0v-11.1c0-.2,0-.3-.3-.3h-22.7c-.2,0-.3.1-.3.3v11.1c0,.3.3,0,0,0h-22.1c-.3,0,0,.3,0,0v-11.1c0-.2,0-.3-.3-.3h-22.7c-.2,0-.3.1-.3.3v11.1c0,.3.3,0,0,0h-22.1c-.3,0,0,.3,0,0v-11.1c0-.2,0-.3-.3-.3h-42.6c-.2,0-.3.1-.3.3v53.9c0,.2,0,.3.3.3h11.1c.3,0,0-.3,0,0v22.1c0,.3.3,0,0,0h-11.1c-.2,0-.3,0-.3.3v22.7c0,.2,0,.3.3.3h11.1c.3,0,0-.3,0,0v22.1c0,.3.3,0,0,0h-11.1c-.2,0-.3,0-.3.3v22.7c0,.2,0,.3.3.3h11.1c.3,0,0-.3,0,0v22.1c0,.3.3,0,0,0h-11.1c-.2,0-.3,0-.3.3v22.7c0,.2,0,.3.3.3h11.1c.3,0,0-.3,0,0v22.1c0,.3.3,0,0,0h-11.1c-.2,0-.3,0-.3.3v53.9c0,.2,0,.3.3.3h11.3"/>
      </g>
      <g id="p-2">
        <path class="cls-2" d="M1332,293.5h31.2c.2,0,.3,0,.3-.3v-11.1c0-.3-.3,0,0,0h22.1c.3,0,0-.3,0,0v11.1c0,.2,0,.3.3.3h22.7c.2,0,.3,0,.3-.3v-11.1c0-.3-.3,0,0,0h22.1c.3,0,0-.3,0,0v11.1c0,.2,0,.3.3.3h31.2c.2,0,.3,0,.3-.3v-53.6c0-.3-.3,0,0,0h11.1c.2,0,.3,0,.3-.3v-22.7c0-.2,0-.3-.3-.3h-11.1c-.3,0,0,.3,0,0v-22.1c0-.3-.3,0,0,0h11.1c.2,0,.3,0,.3-.3v-22.7c0-.2,0-.3-.3-.3h-11.1c-.3,0,0,.3,0,0v-22.1c0-.3-.3,0,0,0h11.1c.2,0,.3,0,.3-.3v-22.7c0-.2,0-.3-.3-.3h-11.1c-.3,0,0,.3,0,0v-22.1c0-.3-.3,0,0,0h11.1c.2,0,.3,0,.3-.3v-22.7c0-.2,0-.3-.3-.3h-11.1c-.3,0,0,.3,0,0V26.5c0-.2,0-.3-.3-.3h-31.2c-.2,0-.3.1-.3.3v11.1c0,.3.3,0,0,0h-22.1c-.3,0,0,.3,0,0v-11.1c0-.2,0-.3-.3-.3h-22.7c-.2,0-.3.1-.3.3v11.1c0,.3.3,0,0,0h-22.1c-.3,0,0,.3,0,0v-11.1c0-.2,0-.3-.3-.3h-31.2c-.2,0-.3.1-.3.3v53.6c0,.3.3,0,0,0h-11.1c-.2,0-.3,0-.3.3v22.7c0,.2,0,.3.3.3h11.1c.3,0,0-.3,0,0v22.1c0,.3.3,0,0,0h-11.1c-.2,0-.3,0-.3.3v22.7c0,.2,0,.3.3.3h11.1c.3,0,0-.3,0,0v22.1c0,.3.3,0,0,0h-11.1c-.2,0-.3,0-.3.3v22.7c0,.2,0,.3.3.3h11.1c.3,0,0-.3,0,0v22.1c0,.3.3,0,0,0h-11.1c-.2,0-.3,0-.3.3v22.7c0,.2,0,.3.3.3h11.1c.3,0,0-.3,0,0v53.6c0,.2,0,.3.3.3"/>
      </g>
      <g id="p-3">
        <path class="cls-2" d="M1166.5,293.4h31.2c.2,0,.3-.1.3-.3v-11.1c0-.3-.3,0,0,0h22.1c.3,0,0-.3,0,0v11.1c0,.2,0,.3.3.3h22.7c.2,0,.3-.1.3-.3v-11.1c0-.3-.3,0,0,0h22.1c.3,0,0-.3,0,0v11.1c0,.2,0,.3.3.3h31.2c.2,0,.3-.1.3-.3v-53.6c0-.3-.3,0,0,0h11.1c.2,0,.3-.1.3-.3v-22.7c0-.2,0-.3-.3-.3h-11.1c-.3,0,0,.3,0,0v-22.1c0-.3-.3,0,0,0h11.1c.2,0,.3-.1.3-.3v-22.7c0-.2,0-.3-.3-.3h-11.1c-.3,0,0,.3,0,0v-22.1c0-.3-.3,0,0,0h11.1c.2,0,.3-.1.3-.3v-22.7c0-.2,0-.3-.3-.3h-11.1c-.3,0,0,.3,0,0v-22.1c0-.3-.3,0,0,0h11.1c.2,0,.3,0,.3-.3v-22.7c0-.2,0-.3-.3-.3h-11.1c-.3,0,0,.3,0,0V26.4c0-.2,0-.3-.3-.3h-31.2c-.2,0-.3.1-.3.3v11.1c0,.3.3,0,0,0h-22.1c-.3,0,0,.3,0,0v-11.1c0-.2,0-.3-.3-.3h-22.7c-.2,0-.3.1-.3.3v11.1c0,.3.3,0,0,0h-22.1c-.3,0,0,.3,0,0v-11.1c0-.2,0-.3-.3-.3h-31.2c-.2,0-.3.1-.3.3v53.6c0,.3.3,0,0,0h-11.1c-.2,0-.3,0-.3.3v22.7c0,.2,0,.3.3.3h11.1c.3,0,0-.3,0,0v22.1c0,.3.3,0,0,0h-11.1c-.2,0-.3,0-.3.3v22.7c0,.2,0,.3.3.3h11.1c.3,0,0-.3,0,0v22.1c0,.3.3,0,0,0h-11.1c-.2,0-.3.1-.3.3v22.7c0,.2,0,.3.3.3h11.1c.3,0,0-.3,0,0v22.1c0,.3.3,0,0,0h-11.1c-.2,0-.3.1-.3.3v22.7c0,.2,0,.3.3.3h11.1c.3,0,0-.3,0,0v53.6c0,.2,0,.3.3.3"/>
      </g>
      <g id="p-4">
        <path class="cls-2" d="M284.2,187.3h-22.7c-.2,0-.3,0-.3.3v11.1c0,.3.3,0,0,0h-22.1c-.3,0,0,.3,0,0v-11.1c0-.2-.1-.3-.3-.3h-22.7c-.2,0-.3,0-.3.3v11.1c0,.3.3,0,0,0h-22.1c-.3,0,0,.3,0,0v-11.1c0-.2-.1-.3-.3-.3h-22.7c-.2,0-.3,0-.3.3v11.1c0,.3.3,0,0,0h-22.1c-.3,0,0,.3,0,0v-11.1c0-.2-.1-.3-.3-.3h-22.7c-.2,0-.3,0-.3.3v11.1c0,.3.3,0,0,0h-22.1c-.3,0,0,.3,0,0v-11.1c0-.2,0-.3-.3-.3h-22.7c-.2,0-.3,0-.3.3v11.1c0,.3.3,0,0,0h-22.1c-.3,0,0,.3,0,0v-11.1c0-.2,0-.3-.3-.3H14.6c-.2,0-.3,0-.3.3v53.9c0,.2.1.3.3.3h11.1c.3,0,0-.3,0,0v22.1c0,.3.3,0,0,0h-11.1c-.2,0-.3.1-.3.3v22.7c0,.2.1.3.3.3h11.1c.3,0,0-.3,0,0v22.1c0,.3.3,0,0,0h-11.1c-.2,0-.3.1-.3.3v22.7c0,.2.1.3.3.3h11.1c.3,0,0-.3,0,0v22.1c0,.3.3,0,0,0h-11.1c-.2,0-.3.1-.3.3v22.7c0,.2.1.3.3.3h11.1c.3,0,0-.3,0,0v22.1c0,.3.3,0,0,0h-11.1c-.2,0-.3.1-.3.3v53.9c0,.2.1.3.3.3h11.3"/>
        <path class="cls-2" d="M306.9,454.6h22.7c.2,0,.3-.1.3-.3v-11.1c0-.3-.3,0,0,0h22.1c.3,0,0-.3,0,0v11.1c0,.2.1.3.3.3h22.7c.2,0,.3-.1.3-.3v-11.1c0-.3-.3,0,0,0h22.1c.3,0,0-.3,0,0v11.1c0,.2.1.3.3.3h22.7c.2,0,.3-.1.3-.3v-11.1c0-.3-.3,0,0,0h22.1c.3,0,0-.3,0,0v11.1c0,.2.1.3.3.3h22.7c.2,0,.3-.1.3-.3v-11.1c0-.3-.3,0,0,0h22.1c.3,0,0-.3,0,0v11.1c0,.2.1.3.3.3h22.7c.2,0,.3-.1.3-.3v-11.1c0-.3-.3,0,0,0h22.1c.3,0,0-.3,0,0v11.1c0,.2,0,.3.3.3h42.5c.2,0,.3-.1.3-.3v-53.9c0-.2,0-.3-.3-.3h-11.1c-.3,0,0,.3,0,0v-22.1c0-.3-.3,0,0,0h11.1c.2,0,.3-.1.3-.3v-22.7c0-.2,0-.3-.3-.3h-11.1c-.3,0,0,.3,0,0v-22.1c0-.3-.3,0,0,0h11.1c.2,0,.3-.1.3-.3v-22.7c0-.2,0-.3-.3-.3h-11.1c-.3,0,0,.3,0,0v-22.1c0-.3-.3,0,0,0h11.1c.2,0,.3-.1.3-.3v-22.7c0-.2,0-.3-.3-.3h-11.1c-.3,0,0,.3,0,0v-22.1c0-.3-.3,0,0,0h11.1c.2,0,.3-.1.3-.3v-53.9c0-.2,0-.3-.3-.3h-42.5c-.2,0-.3.1-.3.3v11.1c0,.3.3,0,0,0h-22.1c-.3,0,0,.3,0,0v-11.1c0-.2,0-.3-.3-.3h-22.7c-.2,0-.3.1-.3.3v11.1c0,.3.3,0,0,0h-22.1c-.3,0,0,.3,0,0v-11.1c0-.2-.1-.3-.3-.3h-22.7c-.2,0-.3.1-.3.3v11.1c0,.3.3,0,0,0h-22.1c-.3,0,0,.3,0,0v-11.1c0-.2-.1-.3-.3-.3h-22.7c-.2,0-.3.1-.3.3v11.1c0,.3.3,0,0,0h-22.1c-.3,0,0,.3,0,0v-11.1c0-.2-.1-.3-.3-.3h-22.7c-.2,0-.3.1-.3.3v11.1c0,.3.3,0,0,0h-22.1c-.3,0,0,.3,0,0v-11.1c0-.2-.1-.3-.3-.3h-45.4"/>
        <path class="cls-2" d="M26,454.6h31.2c.2,0,.3-.1.3-.3v-11.1c0-.3-.3,0,0,0h22.1c.3,0,0-.3,0,0v11.1c0,.2,0,.3.3.3h22.7c.2,0,.3-.1.3-.3v-11.1c0-.3-.3,0,0,0h22.1c.3,0,0-.3,0,0v11.1c0,.2,0,.3.3.3h22.7c.2,0,.3-.1.3-.3v-11.1c0-.3-.3,0,0,0h22.1c.3,0,0-.3,0,0v11.1c0,.2.1.3.3.3h22.7c.2,0,.3-.1.3-.3v-11.1c0-.3-.3,0,0,0h22.1c.3,0,0-.3,0,0v11.1c0,.2.1.3.3.3h22.7c.2,0,.3-.1.3-.3v-11.1c0-.3-.3,0,0,0h22.1c.3,0,0-.3,0,0v11.1c0,.2.1.3.3.3h45.4"/>
      </g>
      <g id="p-5">
        <path class="cls-2" d="M307.2,39.4h-45.4c-.3,0,0,.3,0,0v-11.1c0-.2-.1-.3-.3-.3h-22.7c-.2,0-.3.1-.3.3v11.1c0,.3.3,0,0,0h-22.1c-.3,0,0,.3,0,0v-11.1c0-.2-.1-.3-.3-.3h-22.7c-.2,0-.3.1-.3.3v11.1c0,.3.3,0,0,0h-22.1c-.3,0,0,.3,0,0v-11.1c0-.2-.1-.3-.3-.3h-22.7c-.2,0-.3.1-.3.3v11.1c0,.3.3,0,0,0h-22.1c-.3,0,0,.3,0,0v-11.1c0-.2,0-.3-.3-.3h-22.7c-.2,0-.3.1-.3.3v11.1c0,.3.3,0,0,0h-22.1c-.3,0,0,.3,0,0v-11.1c0-.2,0-.3-.3-.3h-22.7c-.2,0-.3.1-.3.3v11.1c0,.3.3,0,0,0h-30.9c-.2,0-.3,0-.3.3v30.9c0,.3.3,0,0,0h-11.1c-.2,0-.3,0-.3.3v22.7c0,.2.1.3.3.3h11.1c.3,0,0-.3,0,0v22.1c0,.3.3,0,0,0h-11.1c-.2,0-.3,0-.3.3v22.7c0,.2.1.3.3.3h11.1c.3,0,0-.3,0,0v30.9c0,.2,0,.3.3.3"/>
        <path class="cls-2" d="M306.9,28"/>
        <path class="cls-2" d="M283.9,170.5h45.4c.3,0,0-.3,0,0v11.1c0,.2.1.3.3.3h22.7c.2,0,.3-.1.3-.3v-11.1c0-.3-.3,0,0,0h22.1c.3,0,0-.3,0,0v11.1c0,.2.1.3.3.3h22.7c.2,0,.3-.1.3-.3v-11.1c0-.3-.3,0,0,0h22.1c.3,0,0-.3,0,0v11.1c0,.2.1.3.3.3h22.7c.2,0,.3-.1.3-.3v-11.1c0-.3-.3,0,0,0h22.1c.3,0,0-.3,0,0v11.1c0,.2.1.3.3.3h22.7c.2,0,.3-.1.3-.3v-11.1c0-.3-.3,0,0,0h22.1c.3,0,0-.3,0,0v11.1c0,.2,0,.3.3.3h22.7c.2,0,.3-.1.3-.3v-11.1c0-.3-.3,0,0,0h30.9c.2,0,.3-.1.3-.3v-30.9c0-.3-.3,0,0,0h11.1c.2,0,.3-.1.3-.3v-22.7c0-.2,0-.3-.3-.3h-11.1c-.3,0,0,.3,0,0v-22.1c0-.3-.3,0,0,0h11.1c.2,0,.3,0,.3-.3v-22.7c0-.2,0-.3-.3-.3h-11.1c-.3,0,0,.3,0,0v-30.9c0-.2,0-.3-.3-.3h-30.9c-.3,0,0,.3,0,0v-11.1c0-.2,0-.3-.3-.3h-22.7c-.2,0-.3.1-.3.3v11.1c0,.3.3,0,0,0h-22.1c-.3,0,0,.3,0,0v-11.1c0-.2-.1-.3-.3-.3h-22.7c-.2,0-.3.1-.3.3v11.1c0,.3.3,0,0,0h-22.1c-.3,0,0,.3,0,0v-11.1c0-.2-.1-.3-.3-.3h-22.7c-.2,0-.3.1-.3.3v11.1c0,.3.3,0,0,0h-22.1c-.3,0,0,.3,0,0v-11.1c0-.2-.1-.3-.3-.3h-22.7c-.2,0-.3.1-.3.3v11.1c0,.3.3,0,0,0h-22.1c-.3,0,0,.3,0,0v-11.1c0-.2-.1-.3-.3-.3h-22.7c-.2,0-.3.1-.3.3v11.1c0,.3.3,0,0,0h-22.1c-1.8,0,0,.3,0,0"/>
        <path class="cls-2" d="M283.9,170.5"/>
        <path class="cls-2" d="M26,170.5h30.9c.3,0,0-.3,0,0v11.1c0,.2,0,.3.3.3h22.7c.2,0,.3-.1.3-.3v-11.1c0-.3-.3,0,0,0h22.1c.3,0,0-.3,0,0v11.1c0,.2,0,.3.3.3h22.7c.2,0,.3-.1.3-.3v-11.1c0-.3-.3,0,0,0h22.1c.3,0,0-.3,0,0v11.1c0,.2.1.3.3.3h22.7c.2,0,.3-.1.3-.3v-11.1c0-.3-.3,0,0,0h22.1c.3,0,0-.3,0,0v11.1c0,.2.1.3.3.3h22.7c.2,0,.3-.1.3-.3v-11.1c0-.3-.3,0,0,0h22.1c.3,0,0-.3,0,0v11.1c0,.2.1.3.3.3h22.7c.2,0,.3-.1.3-.3v-11.1c0-.3-.3,0,0,0h22.1"/>
      </g>
      <g id="p-6">
        <path class="cls-2" d="M593.5,170.5h30.9c.3,0,0-.3,0,0v11.1c0,.2,0,.3.3.3h22.7c.2,0,.3-.1.3-.3v-11.1c0-.3-.3,0,0,0h22.1c.3,0,0-.3,0,0v11.1c0,.2,0,.3.3.3h22.7c.2,0,.3-.1.3-.3v-11.1c0-.3-.3,0,0,0h22.1c.3,0,0-.3,0,0v11.1c0,.2,0,.3.3.3h22.7c.2,0,.3-.1.3-.3v-11.1c0-.3-.3,0,0,0h22.1c.3,0,0-.3,0,0v11.1c0,.2,0,.3.3.3h22.7c.2,0,.3-.1.3-.3v-11.1c0-.3-.3,0,0,0h22.1c.3,0,0-.3,0,0v11.1c0,.2,0,.3.3.3h22.7c.2,0,.3-.1.3-.3v-11.1c0-.3-.3,0,0,0h22.1c.3,0,0-.3,0,0v11.1c0,.2,0,.3.3.3h22.7c.2,0,.3-.1.3-.3v-11.1c0-.3-.3,0,0,0h22.1c.3,0,0-.3,0,0v11.1c0,.2,0,.3.3.3h22.7c.2,0,.3-.1.3-.3v-11.1c0-.3-.3,0,0,0h22.1c.3,0,0-.3,0,0v11.1c0,.2,0,.3.3.3h22.7c.2,0,.3-.1.3-.3v-11.1c0-.3-.3,0,0,0h22.1c.3,0,0-.3,0,0v11.1c0,.2,0,.3.3.3h22.7c.2,0,.3-.1.3-.3v-11.1c0-.3-.3,0,0,0h22.1c.3,0,0-.3,0,0v11.1c0,.2,0,.3.3.3h22.7c.2,0,.3-.1.3-.3v-11.1c0-.3-.3,0,0,0h22.1c.3,0,0-.3,0,0v11.1c0,.2,0,.3.3.3h22.7c.2,0,.3-.1.3-.3v-11.1c0-.3-.3,0,0,0h30.9c.2,0,.3-.1.3-.3v-30.9c0-.3-.3,0,0,0h11.1c.2,0,.3-.1.3-.3v-22.7c0-.2,0-.3-.3-.3h-11.1c-.3,0,0,.3,0,0v-22.1c0-.3-.3,0,0,0h11.1c.2,0,.3,0,.3-.3v-22.7c0-.2,0-.3-.3-.3h-11.1c-.3,0,0,.3,0,0v-30.9c0-.2,0-.3-.3-.3h-30.9c-.3,0,0,.3,0,0v-11.1c0-.2,0-.3-.3-.3h-22.7c-.2,0-.3.1-.3.3v11.1c0,.3.3,0,0,0h-22.1c-.3,0,0,.3,0,0v-11.1c0-.2,0-.3-.3-.3h-22.7c-.2,0-.3.1-.3.3v11.1c0,.3.3,0,0,0h-22.1c-.3,0,0,.3,0,0v-11.1c0-.2,0-.3-.3-.3h-22.7c-.2,0-.3.1-.3.3v11.1c0,.3.3,0,0,0h-22.1c-.3,0,0,.3,0,0v-11.1c0-.2,0-.3-.3-.3h-22.7c-.2,0-.3.1-.3.3v11.1c0,.3.3,0,0,0h-22.1c-.3,0,0,.3,0,0v-11.1c0-.2,0-.3-.3-.3h-22.7c-.2,0-.3.1-.3.3v11.1c0,.3.3,0,0,0h-22.1c-.3,0,0,.3,0,0v-11.1c0-.2,0-.3-.3-.3h-22.7c-.2,0-.3.1-.3.3v11.1c0,.3.3,0,0,0h-22.1c-.3,0,0,.3,0,0v-11.1c0-.2,0-.3-.3-.3h-22.7c-.2,0-.3.1-.3.3v11.1c0,.3.3,0,0,0h-22.1c-.3,0,0,.3,0,0v-11.1c0-.2,0-.3-.3-.3h-22.7c-.2,0-.3.1-.3.3v11.1c0,.3.3,0,0,0h-22.1c-.3,0,0,.3,0,0v-11.1c0-.2,0-.3-.3-.3h-22.7c-.2,0-.3.1-.3.3v11.1c0,.3.3,0,0,0h-22.1c-.3,0,0,.3,0,0v-11.1c0-.2,0-.3-.3-.3h-22.7c-.2,0-.3.1-.3.3v11.1c0,.3.3,0,0,0h-22.1c-.3,0,0,.3,0,0v-11.1c0-.2,0-.3-.3-.3h-22.7c-.2,0-.3.1-.3.3v11.1c0,.3.3,0,0,0h-30.9c-.2,0-.3,0-.3.3v30.9c0,.3.3,0,0,0h-11.1c-.2,0-.3,0-.3.3v22.7c0,.2,0,.3.3.3h11.1c.3,0,0-.3,0,0v22.1c0,.3.3,0,0,0h-11.1c-.2,0-.3,0-.3.3v22.7c0,.2,0,.3.3.3h11.1c.3,0,0-.3,0,0v30.9c0,.2,0,.3.3.3"/>
      </g>
      <g class="cls-3">
        <g class="cls-3">
          <text class="cls-5" transform="translate(817.6 73.1)"><tspan x="0" y="0">Ein Projekt der:</tspan></text>
        </g>
      </g>
      <g class="cls-3">
        <g class="cls-3">
          <text class="cls-5" transform="translate(990.1 73.1)"><tspan x="0" y="0">Gefördert durch:</tspan></text>
        </g>
      </g>
      <polygon class="cls-2" points="1239.4 100.3 1223.6 100.3 1215.9 116.2 1223.6 132.2 1239.4 132.2 1247.1 116.2 1239.4 100.3"/>
      <polygon class="cls-2" points="1239.4 58.6 1223.6 58.6 1215.9 74.6 1223.6 90.6 1239.4 90.6 1247.1 74.6 1239.4 58.6"/>
      <polygon class="cls-2" points="1239.4 141.8 1223.6 141.8 1215.9 157.8 1223.6 173.8 1239.4 173.8 1247.1 157.8 1239.4 141.8"/>
      <polygon class="cls-2" points="1205 78.3 1189.4 78.3 1181.5 94.2 1189.4 110.2 1205 110.2 1212.9 94.2 1205 78.3"/>
      <polygon class="cls-2" points="1205 121.6 1189.4 121.6 1181.5 137.5 1189.4 153.5 1205 153.5 1212.9 137.5 1205 121.6"/>
      <polygon class="cls-2" points="1272.6 78.7 1257 78.7 1249.1 94.6 1257 110.6 1272.6 110.6 1280.5 94.6 1272.6 78.7"/>
      <polygon class="cls-2" points="1272.6 121.9 1257 121.9 1249.1 137.9 1257 153.9 1272.6 153.9 1280.5 137.9 1272.6 121.9"/>
      <polygon class="cls-2" points="1205.5 165.2 1189.9 165.2 1182 181.2 1189.9 197.1 1205.5 197.1 1213.4 181.2 1205.5 165.2"/>
      <polygon class="cls-2" points="1273.1 165.6 1257.5 165.6 1249.6 181.5 1257.5 197.5 1273.1 197.5 1281 181.5 1273.1 165.6"/>
      <polygon class="cls-2" points="1247.6 201.4 1239.9 185.5 1224.1 185.5 1216.4 201.4 1224.1 225.2 1216.4 245.5 1224.1 261.4 1239.9 261.4 1247.6 245.5 1239.9 225.2 1247.6 201.4"/>
      <polygon class="cls-2" points="1205.5 209.2 1189.9 209.2 1182 225.2 1189.9 241.2 1205.5 241.2 1213.4 225.2 1205.5 209.2"/>
      <polygon class="cls-2" points="1273.1 209.6 1257.5 209.6 1249.6 225.6 1257.5 241.5 1273.1 241.5 1281 225.6 1273.1 209.6"/>
      <polygon class="cls-2" points="1405.3 100.8 1389.5 100.8 1381.8 116.7 1389.5 132.6 1405.3 132.6 1413 116.7 1405.3 100.8"/>
      <polygon class="cls-2" points="1405.3 59.1 1389.5 59.1 1381.8 75.1 1389.5 91 1405.3 91 1413 75.1 1405.3 59.1"/>
      <polygon class="cls-2" points="1405.3 142.3 1389.5 142.3 1381.8 158.2 1389.5 174.2 1405.3 174.2 1413 158.2 1405.3 142.3"/>
      <polygon class="cls-2" points="1370.9 78.7 1355.3 78.7 1347.4 94.7 1355.3 110.7 1370.9 110.7 1378.8 94.7 1370.9 78.7"/>
      <polygon class="cls-2" points="1370.9 122 1355.3 122 1347.4 138 1355.3 153.9 1370.9 153.9 1378.8 138 1370.9 122"/>
      <polygon class="cls-2" points="1438.5 79.1 1422.9 79.1 1415 95.1 1422.9 111 1438.5 111 1446.4 95.1 1438.5 79.1"/>
      <polygon class="cls-2" points="1438.5 122.4 1422.9 122.4 1415 138.4 1422.9 154.3 1438.5 154.3 1446.4 138.4 1438.5 122.4"/>
      <polygon class="cls-2" points="1405.8 185.9 1390 185.9 1382.3 201.9 1390 217.9 1405.8 217.9 1413.5 201.9 1405.8 185.9"/>
      <polygon class="cls-2" points="1371.4 165.7 1355.8 165.7 1347.9 181.6 1355.8 197.6 1371.4 197.6 1379.3 181.6 1371.4 165.7"/>
      <polygon class="cls-2" points="1439 166 1423.4 166 1415.5 182 1423.4 198 1439 198 1446.9 182 1439 166"/>
      <polygon class="cls-2" points="1405.8 230 1390 230 1382.3 245.9 1390 261.9 1405.8 261.9 1413.5 245.9 1405.8 230"/>
      <polygon class="cls-2" points="1371.4 209.7 1355.8 209.7 1347.9 225.7 1355.8 241.6 1371.4 241.6 1379.3 225.7 1371.4 209.7"/>
      <polygon class="cls-2" points="1439 210.1 1423.4 210.1 1415.5 226 1423.4 242 1439 242 1446.9 226 1439 210.1"/>
      <g id="p-0-2">
        <path class="cls-2" d="M255.1,281.4h72v-39.7h-72v39.7Z"/>
      </g>
      <g id="p-0-3">
        <path class="cls-2" d="M178.2,274.5h11.6v-26h-11.6v26Z"/>
      </g>
      <g id="p-0-4">
        <path class="cls-2" d="M249.6,308.2h10v-10h-10v10Z"/>
      </g>
      <g id="p-0-5">
        <path class="cls-2" d="M295.4,308.2h24v-10h-24v10Z"/>
      </g>
      <g id="p-0-6">
        <path class="cls-2" d="M656,394.5v-148h-14.2v148h14.2Z"/>
      </g>
      <g id="p-0-7">
        <path class="cls-2" d="M1089.5,394.5v-148h-14.2v148h14.2Z"/>
      </g>
      <g id="p-0-8">
        <path class="cls-2" d="M153.9,274.5h11.6v-26h-11.6v26Z"/>
      </g>
      <g id="jLw6vK.tif">
        <image id="Layer_0" class="cls-3" width="479" height="321" transform="translate(990.7 89.7) scale(.2)" xlink:href="240811_box-5.png"/>
      </g>
      <g id="_x33_Ik4jQ.tif">
        <image id="Layer_0-2" class="cls-3" width="1198" height="366" transform="translate(818.6 90.7) scale(.1)" xlink:href="240811_box-6.png"/>
      </g>
      <g>
        <path class="cls-6" d="M672,121l-.3,1.6h1.3l-.3,1.3h-1.3l-.4,2v.7c0,.2,0,.5.5.5h.5l-.2,1.4c-.2,0-.6.1-1,.1-1,0-1.5-.5-1.5-1.3s0-.6,0-1.1l.5-2.3h-.8l.2-1.3h.8l.2-1.2,1.8-.4h0Z"/>
        <path class="cls-6" d="M677,128.5v-1.2h0c-.5,1-1.3,1.3-2,1.3-1.1,0-1.8-.8-1.8-2,0-2,1.3-4.1,4.2-4.1s1.5,0,1.9.3l-.6,3.1c0,.8-.3,1.9-.2,2.6h-1.6,0ZM677.5,123.9h-.5c-1.1,0-1.9,1.4-1.9,2.5s.2,1,.7,1,1.2-.6,1.4-2l.3-1.4h0Z"/>
        <path class="cls-6" d="M680.2,128.5l1.6-8.5h1.7l-1.6,8.5h-1.7Z"/>
        <path class="cls-6" d="M683.7,128.5l1.6-8.5h1.7l-1,5.1h0c.2-.2.4-.5.5-.7l1.5-1.8h2.1l-2.5,2.4,1.6,3.4h-1.9l-1-2.5-.6.6-.4,1.9h-1.7.1Z"/>
        <path class="cls-6" d="M690.4,128.5l1.1-5.9h1.7l-1.1,5.9h-1.7ZM691.8,121.1c0-.6.5-1,1-1s.9.3.9.9-.5,1-1,1-.8-.3-.8-.8h-.1Z"/>
        <path class="cls-6" d="M693.9,128.5l.7-4c0-.7.2-1.4.3-1.9h1.5v1c0,0,0,0,0,0,.6-.8,1.3-1.1,2.1-1.1s1.5.6,1.5,1.6v1l-.6,3.4h-1.7l.6-3.2v-.7c0-.4,0-.7-.6-.7s-1.2.7-1.5,2l-.5,2.6h-1.8Z"/>
        <path class="cls-6" d="M701.4,129.3c.3.2,1,.3,1.5.3.9,0,1.5-.4,1.7-1.6v-.5c0,0,0,0,0,0-.5.6-1,.9-1.7.9-1.2,0-1.9-.9-1.9-2.1,0-1.9,1.4-3.9,3.9-3.9s1.6.2,2.2.4l-.9,4.8c-.2,1.1-.5,2-1.2,2.6-.6.5-1.5.7-2.3.7s-1.5-.1-1.9-.4l.4-1.3h.2ZM705.4,124c0,0-.4,0-.6,0-1,0-1.8,1.2-1.8,2.3s.3,1,.8,1,1.1-.6,1.3-1.6c0,0,.3-1.6.3-1.6Z"/>
        <path class="cls-6" d="M713.9,121l-.3,1.6h1.3l-.3,1.3h-1.3l-.4,2v.7c0,.2,0,.5.5.5h.5l-.2,1.4c-.2,0-.6.1-1,.1-1,0-1.5-.5-1.5-1.3s0-.6,0-1.1l.5-2.3h-.8l.2-1.3h.8l.2-1.2,1.8-.4h0Z"/>
        <path class="cls-6" d="M715.1,128.5l.7-3.5c.2-.9.2-1.9.3-2.4h1.5c0,.4,0,.8,0,1.2h0c.4-.8,1.1-1.3,1.9-1.3s.2,0,.3,0l-.3,1.7h-.3c-1.1,0-1.6,1-1.8,2.1l-.4,2.2h-1.8Z"/>
        <path class="cls-6" d="M724.8,128.2c-.7.3-1.5.5-2.2.5-1.7,0-2.5-.9-2.5-2.5s1.3-3.6,3.4-3.6,2,.7,2,1.8-1.5,2-3.8,2c0,.2,0,.4.2.6.2.3.6.4,1.1.4s1.2,0,1.6-.4v1.2h.2ZM723.3,123.8c-.8,0-1.3.7-1.4,1.2,1.3,0,2-.2,2-.7s-.2-.5-.6-.5Z"/>
        <path class="cls-6" d="M731.2,128.2c-.7.3-1.5.5-2.2.5-1.7,0-2.5-.9-2.5-2.5s1.3-3.6,3.4-3.6,2,.7,2,1.8-1.5,2-3.8,2c0,.2,0,.4.2.6.2.3.6.4,1.1.4s1.2,0,1.6-.4v1.2h.2ZM729.7,123.8c-.8,0-1.3.7-1.4,1.2,1.3,0,2-.2,2-.7s-.2-.5-.6-.5Z"/>
        <path class="cls-6" d="M735.9,120l-.7,3.3h0c.4-.5,1.1-.8,1.8-.8,1.2,0,1.8,1,1.8,2,0,1.9-1.2,4.1-3.9,4.1s-2.1-.6-2.1-1.6,0-.7,0-1.1l1.2-5.9h1.8ZM734.7,126.1v.7c0,.4.3.6.7.6,1,0,1.7-1.4,1.7-2.4s-.2-1-.8-1-1.2.6-1.4,1.6v.5h-.2Z"/>
        <path class="cls-6" d="M745.9,124.9c0,2.1-1.5,3.7-3.5,3.7s-2.5-1-2.5-2.4,1.4-3.7,3.5-3.7,2.5,1.1,2.5,2.4ZM741.7,126.2c0,.7.3,1.1.9,1.1.9,0,1.5-1.4,1.5-2.4s-.2-1.1-.9-1.1c-1,0-1.5,1.4-1.5,2.4Z"/>
        <path class="cls-6" d="M750.1,121l-.3,1.6h1.3l-.3,1.3h-1.3l-.4,2v.7c0,.2,0,.5.5.5h.5l-.2,1.4c-.2,0-.6.1-1,.1-1,0-1.5-.5-1.5-1.3s0-.6,0-1.1l.5-2.3h-.8l.2-1.3h.8l.2-1.2,1.8-.4h0Z"/>
      </g>
      <g id="lineal" class="cls-7">
        <g id="p-0">
          <path class="cls-1" d="M14.6,516.2h283.5v-28.3H14.6v28.3Z"/>
          <g class="cls-3">
            <g class="cls-3">
              <text class="cls-4" transform="translate(109.1 487.8)"><tspan x="0" y="0">100mm</tspan></text>
            </g>
          </g>
        </g>
        <g id="p-0-2-2" data-name="p-0-2">
          <path class="cls-1" d="M298.1,516.3h283.5v-28.3h-283.5v28.3h0Z"/>
          <g class="cls-3">
            <g class="cls-3">
              <text class="cls-4" transform="translate(392.6 487.9)"><tspan x="0" y="0">100mm</tspan></text>
            </g>
          </g>
        </g>
        <g id="p-0-3-2" data-name="p-0-3">
          <path class="cls-1" d="M581.9,516.3h283.5v-28.3h-283.5v28.3Z"/>
          <g class="cls-3">
            <g class="cls-3">
              <text class="cls-4" transform="translate(676.4 487.9)"><tspan x="0" y="0">100mm</tspan></text>
            </g>
          </g>
        </g>
        <g id="p-0-4-2" data-name="p-0-4">
          <path class="cls-1" d="M865.6,516.4h283.5v-28.3h-283.5v28.3Z"/>
          <g class="cls-3">
            <g class="cls-3">
              <text class="cls-4" transform="translate(960.1 488)"><tspan x="0" y="0">100mm</tspan></text>
            </g>
          </g>
        </g>
        <g id="p-0-5-2" data-name="p-0-5">
          <path class="cls-1" d="M1149.4,516.3h283.5v-28.3h-283.5v28.3Z"/>
          <g class="cls-3">
            <g class="cls-3">
              <text class="cls-4" transform="translate(1243.9 487.9)"><tspan x="0" y="0">100mm</tspan></text>
            </g>
          </g>
        </g>
        <g id="p-0-6-2" data-name="p-0-6">
          <path class="cls-1" d="M1430.7,516.4h283.5v-28.3h-283.5v28.3Z"/>
          <g class="cls-3">
            <g class="cls-3">
              <text class="cls-4" transform="translate(1525.2 488)"><tspan x="0" y="0">100mm</tspan></text>
            </g>
          </g>
        </g>
      </g>
    </g>
  </g>
</svg>